<svg width="216" height="96" viewBox="0 0 216 96" fill="none" xmlns="http://www.w3.org/2000/svg">
<path fill-rule="evenodd" clip-rule="evenodd" d="M46 80H137C137.515 80 138.017 79.9444 138.5 79.8389C138.983 79.9444 139.485 80 140 80H192C195.866 80 199 76.866 199 73C199 69.134 195.866 66 192 66H186C182.134 66 179 62.866 179 59C179 55.134 182.134 52 186 52H205C208.866 52 212 48.866 212 45C212 41.134 208.866 38 205 38H183C186.866 38 190 34.866 190 31C190 27.134 186.866 24 183 24H119C122.866 24 126 20.866 126 17C126 13.134 122.866 10 119 10H62C58.134 10 55 13.134 55 17C55 20.866 58.134 24 62 24H22C18.134 24 15 27.134 15 31C15 34.866 18.134 38 22 38H47C50.866 38 54 41.134 54 45C54 48.866 50.866 52 47 52H7C3.13401 52 0 55.134 0 59C0 62.866 3.13401 66 7 66H46C42.134 66 39 69.134 39 73C39 76.866 42.134 80 46 80ZM209 80C212.866 80 216 76.866 216 73C216 69.134 212.866 66 209 66C205.134 66 202 69.134 202 73C202 76.866 205.134 80 209 80Z" fill="#F0E2C9"/>
<path fill-rule="evenodd" clip-rule="evenodd" d="M143.711 77.1263C145.102 75.4232 146.352 73.6421 147.461 71.7987C149.901 67.7443 151.66 63.3884 152.734 58.8975C153.821 54.3555 154.209 49.6755 153.894 45.0296C153.62 40.9756 152.811 36.9475 151.465 33.0598C150.131 29.2028 148.268 25.484 145.875 22.015C144.45 19.9479 142.836 17.9696 141.034 16.1036C138.388 13.364 135.486 11.0219 132.402 9.07868C129.089 6.99078 125.566 5.36341 121.926 4.19837C117.368 2.73931 112.628 2.00536 107.886 2.00003C104.197 1.99588 100.507 2.43282 96.9025 3.31249C92.8447 4.30282 88.8953 5.85429 85.1766 7.96925C81.9076 9.82842 78.817 12.123 75.988 14.8547C72.4328 18.2875 69.553 22.1572 67.3512 26.2985C65.1956 30.3531 63.6899 34.6682 62.8366 39.0887C61.9574 43.6429 61.7706 48.3091 62.2789 52.9178C62.9378 58.8911 64.7643 64.7677 67.7644 70.1785C69.684 73.6407 72.0842 76.9123 74.9663 79.8964C79.5416 84.6338 84.8833 88.1826 90.6045 90.5354C97.5619 93.3967 105.081 94.4893 112.465 93.7998C118.662 93.2212 124.765 91.3873 130.361 88.2902" fill="white"/>
<path d="M143.711 77.1263C145.102 75.4232 146.352 73.6421 147.461 71.7987C149.901 67.7443 151.66 63.3884 152.734 58.8975C153.821 54.3555 154.209 49.6755 153.894 45.0296C153.62 40.9756 152.811 36.9475 151.465 33.0598C150.131 29.2028 148.268 25.484 145.875 22.015C144.45 19.9479 142.836 17.9696 141.034 16.1036C138.388 13.364 135.486 11.0219 132.402 9.07868C129.089 6.99078 125.566 5.36341 121.926 4.19837C117.368 2.73931 112.628 2.00536 107.886 2.00003C104.197 1.99588 100.507 2.43282 96.9025 3.31249C92.8447 4.30282 88.8953 5.85429 85.1766 7.96925C81.9076 9.82842 78.817 12.123 75.988 14.8547C72.4328 18.2875 69.553 22.1572 67.3512 26.2985C65.1956 30.3531 63.6899 34.6682 62.8366 39.0887C61.9574 43.6429 61.7706 48.3091 62.2789 52.9178C62.9378 58.8911 64.7643 64.7677 67.7644 70.1785C69.684 73.6407 72.0842 76.9123 74.9663 79.8964C79.5416 84.6338 84.8833 88.1826 90.6045 90.5354C97.5619 93.3967 105.081 94.4893 112.465 93.7998C118.662 93.2212 124.765 91.3873 130.361 88.2902" stroke="#ED7212" stroke-width="2.5" stroke-linecap="round" stroke-linejoin="round"/>
<path fill-rule="evenodd" clip-rule="evenodd" d="M133.7 86.3782C136.607 84.5081 139.19 82.1749 140.871 80.2913L133.7 86.3782Z" fill="white"/>
<path d="M133.7 86.3782C136.607 84.5081 139.19 82.1749 140.871 80.2913" stroke="#ED7212" stroke-width="2.5" stroke-linecap="round"/>
<path d="M150 50.617C149.714 50.6221 149.427 50.6246 149.14 50.6246C123.886 50.6246 103.209 30.9362 101.476 6C81.3752 9.1706 66 26.6526 66 47.7434C66 71.0811 84.8255 90 108.048 90C130.309 90 148.53 72.6145 150 50.617Z" fill="white"/>
<path d="M108 35V50.9688" stroke="#ED7212" stroke-width="5" stroke-linecap="round" stroke-linejoin="round"/>
<path d="M108 60.7021V61.0063" stroke="#ED7212" stroke-width="5" stroke-linecap="round" stroke-linejoin="round"/>
<path fill-rule="evenodd" clip-rule="evenodd" d="M93.8238 10.4131C91.8737 11.1447 89.9687 12.0338 88.1283 13.0806C85.2686 14.7072 82.5648 16.7149 80.0898 19.1049C79.0753 20.0846 78.1237 21.105 77.235 22.161M74.4851 25.8378C73.7784 26.9057 73.1281 28.0004 72.5341 29.1176C72.0955 29.9428 71.6876 30.7803 71.3105 31.6285" fill="white"/>
<path d="M94.2629 11.5834C94.9093 11.341 95.2367 10.6204 94.9942 9.97403C94.7517 9.32766 94.0311 9.00026 93.3848 9.24275L94.2629 11.5834ZM88.1283 13.0806L88.7464 14.1671L88.1283 13.0806ZM80.0898 19.1049L79.2215 18.2057L80.0898 19.1049ZM76.2786 21.3562C75.8341 21.8844 75.9019 22.6729 76.4301 23.1174C76.9583 23.5619 77.7469 23.4941 78.1914 22.9659L76.2786 21.3562ZM75.5275 26.5277C75.9085 25.9519 75.7506 25.1764 75.1749 24.7954C74.5992 24.4144 73.8236 24.5723 73.4426 25.148L75.5275 26.5277ZM72.5341 29.1176L73.6379 29.7044L72.5341 29.1176ZM70.1683 31.1206C69.8878 31.7515 70.1718 32.4902 70.8027 32.7707C71.4335 33.0511 72.1722 32.7671 72.4527 32.1363L70.1683 31.1206ZM93.3848 9.24275C91.3734 9.99733 89.4086 10.9143 87.5103 11.994L88.7464 14.1671C90.5288 13.1532 92.3739 12.2921 94.2629 11.5834L93.3848 9.24275ZM87.5103 11.994C84.5604 13.672 81.7724 15.7424 79.2215 18.2057L80.9582 20.0041C83.3572 17.6873 85.9767 15.7425 88.7464 14.1671L87.5103 11.994ZM79.2215 18.2057C78.176 19.2154 77.1949 20.2673 76.2786 21.3562L78.1914 22.9659C79.0524 21.9427 79.9747 20.9538 80.9582 20.0041L79.2215 18.2057ZM73.4426 25.148C72.7138 26.2494 72.043 27.3785 71.4304 28.5309L73.6379 29.7044C74.2131 28.6222 74.843 27.562 75.5275 26.5277L73.4426 25.148ZM71.4304 28.5309C70.978 29.382 70.5572 30.2459 70.1683 31.1206L72.4527 32.1363C72.818 31.3148 73.213 30.5036 73.6379 29.7044L71.4304 28.5309Z" fill="#F0E2C9"/>
</svg>
